HIERARCHY
ROOT Hips
{
	OFFSET	0.00	0.00	0.00
	CHANNELS 6 Xposition Yposition Zposition Zrotation Xrotation Yrotation
	JOINT LeftUpLeg
	{
		OFFSET	 0.126116	-0.014019	-0.065224
		CHANNELS 3 Zrotation Xrotation Yrotation
		JOINT LeftLeg
		{
			OFFSET	 0.000000	 0.000000	 0.569914
			CHANNELS 3 Zrotation Xrotation Yrotation
			JOINT LeftFoot
			{
				OFFSET	 0.000000	 0.000000	 0.544423
				CHANNELS 3 Zrotation Xrotation Yrotation
				JOINT LeftToeBase
				{
					OFFSET	 0.000000	 0.000000	 0.207117
					CHANNELS 3 Zrotation Xrotation Yrotation
					End Site
					{
						OFFSET	 0.000000	 0.000000	 0.207117
					}
				}
			}
		}
	}
	JOINT RightUpLeg
	{
		OFFSET	-0.124023	-0.008373	-0.065224
		CHANNELS 3 Zrotation Xrotation Yrotation
		JOINT RightLeg
		{
			OFFSET	 0.000000	 0.000000	 0.570047
			CHANNELS 3 Zrotation Xrotation Yrotation
			JOINT RightFoot
			{
				OFFSET	 0.000000	 0.000000	 0.544354
				CHANNELS 3 Zrotation Xrotation Yrotation
				JOINT RightToeBase
				{
					OFFSET	 0.000000	 0.000000	 0.207540
					CHANNELS 3 Zrotation Xrotation Yrotation
					End Site
					{
						OFFSET	 0.000000	 0.000000	 0.207540
					}
				}
			}
		}
	}
	JOINT Spine
	{
		OFFSET	 0.000184	-0.007763	 0.117403
		CHANNELS 3 Zrotation Xrotation Yrotation
		JOINT Spine1
		{
			OFFSET	 0.000000	 0.000000	 0.137269
			CHANNELS 3 Zrotation Xrotation Yrotation
			JOINT Spine2
			{
				OFFSET	 0.000000	 0.000000	 0.156879
				CHANNELS 3 Zrotation Xrotation Yrotation
				JOINT LeftShoulder
				{
					OFFSET	 0.080501	-0.002496	 0.160144
					CHANNELS 3 Zrotation Xrotation Yrotation
					JOINT LeftArm
					{
						OFFSET	 0.000000	 0.000000	 0.164363
						CHANNELS 3 Zrotation Xrotation Yrotation
						JOINT LeftForeArm
						{
							OFFSET	 0.000000	 0.000000	 0.364576
							CHANNELS 3 Zrotation Xrotation Yrotation
							JOINT LeftHand
							{
								OFFSET	 0.000000	 0.000000	 0.360812
								CHANNELS 3 Zrotation Xrotation Yrotation
								JOINT LeftHandIndex1
								{
									OFFSET	 0.000000	 0.000000	 0.086006
									CHANNELS 3 Zrotation Xrotation Yrotation
									JOINT LeftHandIndex2
									{
										OFFSET	 0.000000	 0.000000	 0.047236
										CHANNELS 3 Zrotation Xrotation Yrotation
										JOINT LeftHandIndex3
										{
											OFFSET	-0.004284	-0.000551	 0.038166
											CHANNELS 3 Zrotation Xrotation Yrotation
											End Site
											{
												OFFSET	-0.004284	-0.000551	 0.038166
											}
										}
									}
								}
							}
						}
					}
				}
				JOINT Neck
				{
					OFFSET	 0.000000	 0.000000	 0.176489
					CHANNELS 3 Zrotation Xrotation Yrotation
					JOINT Head
					{
						OFFSET	 0.000000	-0.001747	 0.077940
						CHANNELS 3 Zrotation Xrotation Yrotation
						End Site
						{
							OFFSET	 0.000000	-0.001747	 0.077940
						}
					}
				}
				JOINT RightShoulder
				{
					OFFSET	-0.080363	 0.000306	 0.159706
					CHANNELS 3 Zrotation Xrotation Yrotation
					JOINT RightArm
					{
						OFFSET	 0.000000	 0.000000	 0.164196
						CHANNELS 3 Zrotation Xrotation Yrotation
						JOINT RightForeArm
						{
							OFFSET	 0.000000	 0.000000	 0.365611
							CHANNELS 3 Zrotation Xrotation Yrotation
							JOINT RightHand
							{
								OFFSET	 0.000000	 0.000000	 0.360648
								CHANNELS 3 Zrotation Xrotation Yrotation
								JOINT RightHandIndex1
								{
									OFFSET	 0.000000	 0.000000	 0.069977
									CHANNELS 3 Zrotation Xrotation Yrotation
									JOINT RightHandIndex2
									{
										OFFSET	 0.000000	 0.000000	 0.052305
										CHANNELS 3 Zrotation Xrotation Yrotation
										JOINT RightHandIndex3
										{
											OFFSET	 0.009002	-0.000782	 0.042196
											CHANNELS 3 Zrotation Xrotation Yrotation
											End Site
											{
												OFFSET	 0.009002	-0.000782	 0.042196
											}
										}
									}
								}
							}
						}
					}
				}
			}
		}
	}
}
MOTION
Frames:    9
Frame Time: 0.03333334
 0.011452	 0.047720	 1.200915	 5.115511	-1.313998	-3.483434	 2.994643	-11.439180	-172.067100	 0.989585	-38.777200	 0.398873	 53.993840	 81.380290	-57.976910	-2.369573	 31.585730	-0.069261	-8.360102	-31.144050	-174.983000	 10.931530	-51.463470	 9.192938	 19.225150	 77.437920	-15.396900	 2.358880	 33.013710	 0.103542	-0.802716	 8.704919	 1.063092	 1.004576	 2.704287	 2.433832	-6.531238	-2.732282	-3.014713	-93.957380	 58.954630	 175.349200	 16.271700	 34.532080	-40.998070	-1.712694	-0.045849	-0.701803	-0.913017	-18.649960	-7.981438	-4.870129	 19.243410	-2.790907	-3.878514	 21.511330	 2.199692	-4.806231	 5.569420	 0.145571	-0.070897	-5.081101	 0.186722	-8.442431	 1.939102	 2.175963	 89.774220	 61.653970	 179.981100	-20.122620	 53.227950	 8.053305	-1.057620	-3.000823	 16.137160	-4.595042	-3.953013	 0.569447	 6.291923	 24.674990	-0.537193	 1.909561	 44.505440	-7.014549	 0.558138	 24.136220	 3.552150
 0.010350	 0.024345	 1.199352	 5.795296	-0.699710	-3.516283	 2.346535	-10.863090	-172.236700	 1.273226	-38.618430	 0.574550	 57.438650	 81.909660	-61.639350	-2.368405	 31.779170	-0.073648	-10.385230	-33.399720	-175.356500	 11.416250	-48.434020	 9.169131	 28.308980	 80.624470	-25.538730	 2.359025	 32.992910	 0.103049	-1.720642	 8.292462	 0.934900	 0.958478	 2.597332	 2.593192	-6.659558	-2.826878	-3.069335	-94.125890	 58.983600	 174.986000	 15.590580	 32.963810	-41.645680	-2.308174	-0.037110	-0.885637	-0.768140	-19.408190	-8.728049	-4.864336	 19.392160	-2.800744	-3.869042	 21.632220	 2.190068	-4.804098	 5.594564	 0.144099	-0.035858	-5.107235	 0.235736	-8.448709	 1.910356	 2.067412	 89.709050	 61.771040	 179.825000	-19.737390	 54.024120	 6.399440	-1.250832	-3.154742	 16.816540	-4.610815	-3.968058	 0.341650	 6.275456	 23.491640	-0.552468	 2.048922	 43.344580	-7.138224	 0.812050	 23.008430	 3.426007
 0.008868	-0.017204	 1.196463	 6.377193	 0.123287	-3.819613	 1.750523	-9.163538	-172.317000	 1.526664	-37.740550	 0.718616	 64.763820	 82.769620	-69.153440	-2.366048	 32.159270	-0.082315	-12.055300	-35.982340	-175.776900	 11.354120	-41.677590	 8.121088	 35.058570	 80.751850	-33.829440	 2.360888	 32.713630	 0.096587	-2.809439	 7.637630	 1.021145	 0.877862	 2.846462	 2.751312	-6.805185	-3.070285	-3.147692	-94.330450	 58.987170	 174.549600	 14.090150	 30.417570	-42.799220	-3.532240	-0.017228	-1.153427	-0.970692	-20.748730	-8.718540	-4.849614	 19.732900	-2.816080	-3.852109	 21.847250	 2.172871	-4.795787	 5.692414	 0.138359	-0.008734	-5.169389	 0.302102	-8.490639	 1.867275	 2.003120	 89.583760	 61.930360	 179.522100	-19.078650	 55.158830	 4.158938	-1.902187	-3.330514	 17.023740	-4.950444	-3.969321	-0.443250	 6.245026	 21.640640	-0.607426	 2.225924	 41.792930	-7.294047	 1.225613	 21.124270	 3.229555
 0.007116	-0.062624	 1.192377	 6.594006	 0.614353	-4.184539	 1.395526	-6.621757	-172.407600	 1.651033	-36.368350	 0.769952	 71.373860	 83.489910	-75.813630	-2.360291	 33.041730	-0.102629	-11.897910	-36.897610	-175.803800	 10.417380	-33.038980	 6.147641	 52.075750	 81.208060	-51.751430	 2.354817	 33.597720	 0.117178	-3.802854	 7.073333	 1.250320	 0.807854	 3.546830	 2.766036	-6.873603	-3.403285	-3.166934	-94.451550	 58.967380	 174.294600	 12.216320	 28.174090	-43.932300	-4.767335	 0.007658	-1.431073	-1.559509	-21.766330	-8.319453	-4.830078	 20.132230	-2.822222	-3.830088	 22.125310	 2.150495	-4.776079	 5.923954	 0.124725	 0.016950	-5.257682	 0.337660	-8.498139	 1.802310	 1.938013	 89.468920	 62.030320	 179.243000	-18.045540	 56.080960	 2.181721	-2.834036	-3.358398	 16.262980	-5.369642	-4.191397	-1.735950	 6.205490	 19.532880	-0.689800	 2.474651	 39.454540	-7.510375	 1.675785	 19.008000	 3.028973
 0.004664	-0.105197	 1.186524	 6.826554	 0.749254	-4.457239	 0.994082	-3.923142	-172.617600	 1.826627	-35.140950	 0.848492	 72.405560	 83.974060	-76.874830	-2.346280	 34.953350	-0.147760	-11.442090	-37.485520	-175.708200	 10.266590	-26.483910	 4.965465	 60.294640	 80.312640	-60.805700	 2.341568	 35.331910	 0.158547	-4.978217	 6.969443	 1.417496	 0.754251	 3.898050	 2.819282	-6.889057	-3.665168	-3.201019	-94.521870	 58.922460	 174.152300	 10.515750	 26.811700	-44.670210	-5.521635	 0.034052	-1.710065	-2.341036	-23.074910	-8.565852	-4.835497	 20.408660	-2.935282	-3.803468	 22.458740	 2.123450	-4.743639	 6.303493	 0.102184	 0.073242	-5.352711	 0.351659	-8.429930	 1.794006	 1.734171	 89.387360	 62.007470	 179.046500	-16.668610	 56.652340	 0.053654	-3.650640	-3.345434	 15.626920	-5.494629	-4.928780	-3.051893	 6.173727	 17.338510	-0.707139	 2.746922	 36.662870	-7.743145	 2.125424	 16.828600	 2.843178
 0.000522	-0.149038	 1.177593	 7.094889	 0.707219	-4.412399	 0.425187	-1.097923	-173.232800	 2.220858	-34.320350	 1.053551	 62.215710	 84.142140	-66.755260	-2.311080	 38.806880	-0.244096	-11.049990	-39.784780	-175.963500	 10.233590	-23.746810	 4.472242	 42.561650	 77.788890	-43.328270	 2.337101	 35.867780	 0.171612	-6.383065	 7.009082	 1.375085	 0.747643	 4.260108	 2.798406	-6.893693	-3.906997	-3.231971	-94.531840	 59.072360	 174.106100	 8.934067	 26.031250	-45.478900	-6.120892	 0.066130	-2.014417	-3.472800	-24.847170	-9.425035	-4.862615	 20.555550	-3.136437	-3.776404	 22.794510	 2.095976	-4.699600	 6.815435	 0.071412	 0.146321	-5.443877	 0.311726	-8.285317	 1.849395	 1.522335	 89.357060	 61.798520	 178.981100	-15.231880	 56.949720	-2.598786	-4.219203	-3.485837	 15.986940	-5.514030	-6.103836	-4.202658	 6.175186	 15.093460	-0.552487	 2.948722	 34.421570	-7.912539	 2.571022	 14.607120	 2.674115
-0.006078	-0.201089	 1.166102	 7.390353	 0.406436	-3.730913	 0.003077	 2.507572	-174.759400	 2.057649	-33.325070	 0.936861	 34.990990	 82.574370	-38.781410	-2.206076	 46.476270	-0.465219	-9.594361	-42.521460	-176.335000	 7.767951	-23.435930	 3.412154	 17.573850	 71.632420	-15.339160	 2.340148	 35.504970	 0.162748	-8.071605	 7.027641	 0.747985	 0.759907	 5.005240	 2.794311	-6.921525	-4.145427	-3.362726	-94.474980	 59.316720	 174.187100	 7.559226	 25.419090	-46.431550	-6.973295	 0.111970	-2.366337	-4.772607	-26.345160	-10.152070	-4.888288	 20.678650	-3.324581	-3.757363	 23.029100	 2.076645	-4.642865	 7.469399	 0.031472	 0.234287	-5.477613	 0.253424	-8.084982	 1.976786	 1.616323	 89.354440	 61.499080	 178.985900	-13.874850	 57.009510	-5.265757	-4.566751	-3.651832	 16.756130	-5.764636	-7.588027	-5.037848	 6.243049	 12.657200	-0.115252	 3.095609	 32.690570	-8.033944	 3.010487	 12.360210	 2.522769
-0.012181	-0.251908	 1.157492	 8.105704	-0.220690	-2.927224	 0.085098	 6.639853	-176.677200	 0.588648	-31.195950	 0.122202	 14.422940	 76.693340	-15.864530	-2.039840	 53.880030	-0.737800	-7.090635	-42.931060	-175.861700	 6.300011	-23.277330	 2.801131	 2.899882	 63.249150	 2.881848	 2.336852	 35.898020	 0.172347	-9.852930	 7.220864	-0.033268	 0.612405	 5.717563	 2.771895	-7.007895	-4.273805	-3.524406	-94.415980	 59.193860	 174.334000	 6.823245	 24.651700	-47.008340	-7.880798	 0.160696	-2.680024	-5.446665	-26.529200	-10.159280	-4.895638	 20.839450	-3.420894	-3.741909	 23.218310	 2.060957	-4.590282	 8.069894	-0.005831	 0.326513	-5.438999	 0.267333	-7.943452	 2.201479	 1.895383	 89.273000	 61.409360	 178.796600	-12.934360	 56.934710	-6.480800	-4.492265	-3.450587	 16.543840	-5.830595	-8.900792	-4.815298	 6.314394	 10.690580	 0.250643	 3.239630	 30.906860	-8.151266	 3.317044	 10.762270	 2.426599
-0.018652	-0.309691	 1.150235	 9.330035	-0.935184	-2.034387	 0.058161	 11.752150	-178.955500	 0.244769	-27.569940	-0.049962	 5.620592	 64.979800	-4.756645	-1.620632	 63.907450	-1.294255	-6.286303	-41.455750	-176.424300	 6.936861	-23.474630	 3.080755	-3.091440	 54.938740	 10.599800	 2.339504	 35.582220	 0.164628	-11.994280	 7.405833	-0.715558	 0.114681	 6.161702	 2.279781	-7.168804	-4.225528	-3.454087	-94.331520	 59.138030	 174.523900	 6.623907	 23.993790	-47.160080	-8.529200	 0.215967	-3.005981	-5.710060	-25.957920	-10.336540	-4.864828	 21.077980	-3.319844	-3.710294	 23.602630	 2.028859	-4.540996	 8.627768	-0.041044	 0.390703	-5.372877	 0.272792	-7.882351	 2.534459	 2.086725	 89.126280	 61.200760	 178.461100	-12.126430	 56.564920	-7.162269	-3.686913	-3.005209	 16.154660	-5.187203	-10.188710	-3.725028	 6.355227	 9.196945	 0.441675	 3.353903	 29.427670	-8.243039	 3.542002	 9.575024	 2.361087
